<?xml version="1.0" standalone="no"?>
<!DOCTYPE svg PUBLIC "-//W3C//DTD SVG 20010904//EN"
 "http://www.w3.org/TR/2001/REC-SVG-20010904/DTD/svg10.dtd">
<svg version="1.0" xmlns="http://www.w3.org/2000/svg"
 width="512.000000pt" height="512.000000pt" viewBox="0 0 512.000000 512.000000"
 preserveAspectRatio="xMidYMid meet">
<metadata>
Created by potrace 1.11, written by Peter Selinger 2001-2013
</metadata>
<g transform="translate(0.000000,512.000000) scale(0.100000,-0.100000)"
fill="#000000" stroke="none">
<path d="M849 4525 c0 -39 0 -3796 0 -3812 1 -10 79 -13 356 -13 l355 0 1 803
c1 441 3 816 4 832 2 17 6 53 9 80 14 132 68 273 133 346 107 119 340 158 516
84 114 -48 193 -184 213 -369 4 -34 7 -447 7 -918 l0 -858 354 0 354 0 -4 987
c-2 544 -7 1006 -11 1028 -18 98 -51 214 -79 284 -112 277 -323 444 -622 490
-59 9 -307 7 -323 -3 -5 -3 -21 -7 -36 -10 -55 -10 -142 -39 -191 -63 -109
-55 -238 -166 -299 -257 l-26 -39 -2 719 -3 719 -352 0 -353 0 -1 -30z"/>
<path d="M3670 1165 l0 -465 380 0 380 0 1 28 c0 36 0 828 0 870 l-1 32 -380
0 -380 0 0 -465z"/>
</g>
</svg>
